<svg width="30" height="30" viewBox="0 0 30 30" fill="none" xmlns="http://www.w3.org/2000/svg">
<g clip-path="url(#clip0)">
<mask id="path-1-outside-1" maskUnits="userSpaceOnUse" x="-1" y="2.37762" width="32" height="25" fill="black">
<rect fill="white" x="-1" y="2.37762" width="32" height="25"/>
<path d="M29.8117 11.2779L29.0303 9.92433C28.8685 9.64414 28.5104 9.54811 28.2299 9.70988C27.9497 9.87165 27.8537 10.23 28.0155 10.5102L28.7969 11.8638C28.8382 11.9351 28.829 12.0031 28.8198 12.0373C28.8107 12.0714 28.7846 12.1349 28.7133 12.1761L26.6468 13.3692C26.5375 13.4321 26.3975 13.3945 26.3344 13.2855L22.1773 6.08532C22.1143 5.97611 22.1519 5.83596 22.2611 5.77285L24.3274 4.57986C24.4366 4.51694 24.5769 4.55432 24.6399 4.66353L25.3789 5.94347C25.5407 6.22378 25.899 6.31981 26.1792 6.15792C26.4595 5.99615 26.5555 5.6378 26.3937 5.35755L25.6547 4.07761C25.2687 3.4089 24.4105 3.17881 23.7416 3.56499L21.6751 4.75804C21.3612 4.93933 21.144 5.22461 21.0418 5.54546H15.1838C14.3613 5.54546 13.5881 5.86572 13.0064 6.44731L12.4062 7.04752C11.8799 6.92208 11.3408 6.85757 10.7986 6.85757H8.97963C8.88875 6.50654 8.663 6.19061 8.32492 5.99539L6.25851 4.80234C5.93449 4.61525 5.55693 4.56563 5.19571 4.66242C4.83437 4.75921 4.53233 4.991 4.3453 5.31496L0.188267 12.5151C0.00124138 12.8391 -0.0485032 13.2165 0.0482907 13.5779C0.145084 13.9393 0.376874 14.2413 0.700887 14.4283L2.76731 15.6214C2.98732 15.7484 3.22772 15.8088 3.46519 15.8088C3.55173 15.8088 3.63781 15.8004 3.72241 15.7847L5.41373 17.4761C5.38783 17.609 5.37441 17.7454 5.37441 17.8839C5.37441 18.4469 5.59366 18.9762 5.9918 19.3743C6.37299 19.7555 6.86505 19.9595 7.36513 19.9871C7.35746 20.0606 7.35329 20.1348 7.35329 20.2097C7.35329 20.7727 7.57255 21.3021 7.97068 21.7001C8.36881 22.0983 8.89813 22.3175 9.46114 22.3175C9.47643 22.3175 9.49155 22.3168 9.50678 22.3164C9.50643 22.3316 9.50567 22.3467 9.50567 22.362C9.50567 22.9251 9.72492 23.4544 10.1231 23.8525C10.5212 24.2506 11.0505 24.4699 11.6135 24.4699C11.6288 24.4699 11.6439 24.4691 11.6592 24.4688C11.6588 24.484 11.658 24.4991 11.658 24.5144C11.658 25.0774 11.8773 25.6068 12.2754 26.0049C12.6736 26.403 13.2029 26.6223 13.7659 26.6223C14.3289 26.6223 14.8583 26.403 15.2563 26.0049L16.0899 25.1714C16.3343 24.927 16.5054 24.6369 16.6044 24.3284C16.9747 24.6017 17.4148 24.7384 17.855 24.7384C18.3946 24.7383 18.9346 24.5329 19.3454 24.122C19.5913 23.8761 19.7686 23.5802 19.8686 23.2573C20.2078 23.479 20.604 23.5983 21.0187 23.5983C21.5817 23.5983 22.1111 23.3791 22.5091 22.9809C22.805 22.6851 23.0018 22.3168 23.0836 21.916C23.2952 21.9861 23.5188 22.023 23.7482 22.023C24.3112 22.023 24.8406 21.8038 25.2387 21.4056C26.0605 20.5837 26.0605 19.2465 25.2387 18.4246L23.8712 17.0571L26.3674 14.5609C26.4228 14.5675 26.4786 14.5713 26.5347 14.5713C26.7722 14.5713 27.0126 14.5109 27.2326 14.3839L29.299 13.1909C29.623 13.0039 29.8548 12.7019 29.9516 12.3405C30.0485 11.9791 29.9988 11.6018 29.8117 11.2779ZM1.28675 13.4135C1.21538 13.3723 1.18937 13.3089 1.18023 13.2747C1.17109 13.2405 1.16189 13.1725 1.20314 13.1011L5.36017 5.90088C5.40136 5.82951 5.46488 5.8035 5.49904 5.79436C5.51363 5.79049 5.53437 5.78656 5.55886 5.78656C5.59185 5.78656 5.63163 5.79365 5.67253 5.81721L7.73895 7.01026C7.8481 7.0733 7.88572 7.21345 7.82267 7.32267L3.66564 14.5229C3.60253 14.632 3.4625 14.6696 3.35323 14.6066L1.28675 13.4135ZM6.54625 17.8838C6.54625 17.6337 6.64363 17.3987 6.82046 17.2219L7.32611 16.7162C7.50856 16.5337 7.74826 16.4425 7.98802 16.4425C8.22766 16.4425 8.46742 16.5338 8.64987 16.7162C8.8267 16.8931 8.92409 17.1281 8.92409 17.3781C8.92409 17.6281 8.8267 17.8632 8.64987 18.04L8.14423 18.5456C7.77926 18.9106 7.18543 18.9106 6.82046 18.5456C6.64363 18.3689 6.54625 18.1338 6.54625 17.8838ZM9.4612 21.1457C9.21113 21.1457 8.97611 21.0483 8.79934 20.8715C8.62251 20.6947 8.52513 20.4597 8.52513 20.2097C8.52513 19.9597 8.62251 19.7246 8.79934 19.5478L9.63281 18.7143C9.81527 18.5319 10.055 18.4407 10.2947 18.4407C10.5344 18.4407 10.7741 18.5319 10.9566 18.7143C11.1334 18.8911 11.2308 19.1262 11.2308 19.3762C11.2308 19.6262 11.1334 19.8613 10.9566 20.0381L10.1231 20.8715C9.94628 21.0484 9.71121 21.1457 9.4612 21.1457ZM11.6136 23.2981C11.3635 23.2981 11.1285 23.2007 10.9517 23.024C10.7749 22.8472 10.6775 22.6121 10.6775 22.3621C10.6775 22.1121 10.7749 21.877 10.9517 21.7002L11.7852 20.8667C11.9676 20.6843 12.2073 20.593 12.447 20.593C12.6867 20.593 12.9265 20.6843 13.109 20.8668C13.2858 21.0435 13.3832 21.2786 13.3832 21.5286C13.3832 21.7786 13.2858 22.0137 13.109 22.1905L12.2755 23.024C12.0987 23.2007 11.8636 23.2981 11.6136 23.2981ZM15.2613 24.3429L14.4278 25.1764C14.251 25.3532 14.016 25.4505 13.7659 25.4505C13.5159 25.4505 13.2809 25.3532 13.1041 25.1764C12.9273 24.9996 12.8299 24.7645 12.8299 24.5145C12.8299 24.2645 12.9273 24.0295 13.1041 23.8526L13.9376 23.0191C14.12 22.8366 14.3597 22.7454 14.5995 22.7454C14.8391 22.7454 15.0789 22.8367 15.2613 23.0191C15.6263 23.384 15.6263 23.9779 15.2613 24.3429ZM24.4102 20.5771C24.2334 20.7539 23.9984 20.8513 23.7483 20.8513C23.4983 20.8513 23.2633 20.7539 23.0865 20.5771L17.4939 14.9845C17.2651 14.7558 16.8942 14.7557 16.6652 14.9845C16.4364 15.2133 16.4364 15.5843 16.6652 15.8131L21.6807 20.8286C21.8575 21.0054 21.9549 21.2405 21.9549 21.4905C21.9549 21.7405 21.8575 21.9756 21.6807 22.1524C21.5039 22.3292 21.2689 22.4266 21.0188 22.4266C20.7687 22.4266 20.5337 22.3292 20.3569 22.1524L14.3301 16.1256C14.1013 15.8968 13.7303 15.8968 13.5015 16.1256C13.2727 16.3544 13.2727 16.7254 13.5015 16.9542L18.5169 21.9697C18.6938 22.1465 18.7911 22.3816 18.7911 22.6316C18.7911 22.8816 18.6938 23.1166 18.5169 23.2934C18.152 23.6584 17.5582 23.6585 17.1932 23.2934L16.0901 22.1904C16.0886 22.1888 16.0869 22.1876 16.0854 22.1861C15.6634 21.7666 15.1068 21.5634 14.5539 21.5753C14.5542 21.5597 14.555 21.5443 14.555 21.5286C14.555 20.9656 14.3358 20.4362 13.9376 20.0381C13.5151 19.6156 12.9564 19.4109 12.4015 19.4228C12.4018 19.4073 12.4026 19.3918 12.4026 19.3763C12.4026 18.8132 12.1833 18.2839 11.7852 17.8857C11.3231 17.4237 10.6981 17.2215 10.0935 17.279C10.0693 16.7532 9.85312 16.2623 9.47848 15.8877C8.65661 15.0658 7.31931 15.066 6.49744 15.8877L5.9918 16.3933C5.99121 16.3939 5.99062 16.3946 5.99004 16.3952L4.68895 15.0941L8.7677 8.0294H10.7985C10.9975 8.0294 11.1959 8.03995 11.3933 8.06046L10.7235 8.73022C10.3254 9.12835 10.1061 9.65773 10.1061 10.2207C10.1061 10.7838 10.3254 11.3131 10.7235 11.7113C11.1345 12.1222 11.6743 12.3276 12.214 12.3276C12.7538 12.3276 13.2936 12.1222 13.7045 11.7113L15.2862 10.1295L24.4102 19.2534C24.7751 19.6183 24.7751 20.2122 24.4102 20.5771ZM18.7808 11.9667C19.6335 11.3496 20.1561 10.3538 20.1561 9.2719C20.1561 8.9483 19.8937 8.68599 19.5702 8.68599C19.2466 8.68599 18.9843 8.9483 18.9843 9.2719C18.9843 10.0373 18.58 10.7354 17.9349 11.1209L15.7033 8.88924C15.4744 8.66044 15.1041 8.65446 14.8752 8.88326L12.8759 10.8826C12.5109 11.2476 11.9171 11.2475 11.5521 10.8826C11.3753 10.7058 11.2779 10.4708 11.2779 10.2207C11.2779 9.97073 11.3753 9.73566 11.5521 9.55883L13.835 7.27591C14.1952 6.91569 14.6742 6.7173 15.1838 6.7173H21.1891L25.3196 13.8715C25.3293 13.8884 25.34 13.9045 25.3504 13.9209L23.0427 16.2286L18.7808 11.9667Z"/>
</mask>
<path d="M29.8117 11.2779L29.0303 9.92433C28.8685 9.64414 28.5104 9.54811 28.2299 9.70988C27.9497 9.87165 27.8537 10.23 28.0155 10.5102L28.7969 11.8638C28.8382 11.9351 28.829 12.0031 28.8198 12.0373C28.8107 12.0714 28.7846 12.1349 28.7133 12.1761L26.6468 13.3692C26.5375 13.4321 26.3975 13.3945 26.3344 13.2855L22.1773 6.08532C22.1143 5.97611 22.1519 5.83596 22.2611 5.77285L24.3274 4.57986C24.4366 4.51694 24.5769 4.55432 24.6399 4.66353L25.3789 5.94347C25.5407 6.22378 25.899 6.31981 26.1792 6.15792C26.4595 5.99615 26.5555 5.6378 26.3937 5.35755L25.6547 4.07761C25.2687 3.4089 24.4105 3.17881 23.7416 3.56499L21.6751 4.75804C21.3612 4.93933 21.144 5.22461 21.0418 5.54546H15.1838C14.3613 5.54546 13.5881 5.86572 13.0064 6.44731L12.4062 7.04752C11.8799 6.92208 11.3408 6.85757 10.7986 6.85757H8.97963C8.88875 6.50654 8.663 6.19061 8.32492 5.99539L6.25851 4.80234C5.93449 4.61525 5.55693 4.56563 5.19571 4.66242C4.83437 4.75921 4.53233 4.991 4.3453 5.31496L0.188267 12.5151C0.00124138 12.8391 -0.0485032 13.2165 0.0482907 13.5779C0.145084 13.9393 0.376874 14.2413 0.700887 14.4283L2.76731 15.6214C2.98732 15.7484 3.22772 15.8088 3.46519 15.8088C3.55173 15.8088 3.63781 15.8004 3.72241 15.7847L5.41373 17.4761C5.38783 17.609 5.37441 17.7454 5.37441 17.8839C5.37441 18.4469 5.59366 18.9762 5.9918 19.3743C6.37299 19.7555 6.86505 19.9595 7.36513 19.9871C7.35746 20.0606 7.35329 20.1348 7.35329 20.2097C7.35329 20.7727 7.57255 21.3021 7.97068 21.7001C8.36881 22.0983 8.89813 22.3175 9.46114 22.3175C9.47643 22.3175 9.49155 22.3168 9.50678 22.3164C9.50643 22.3316 9.50567 22.3467 9.50567 22.362C9.50567 22.9251 9.72492 23.4544 10.1231 23.8525C10.5212 24.2506 11.0505 24.4699 11.6135 24.4699C11.6288 24.4699 11.6439 24.4691 11.6592 24.4688C11.6588 24.484 11.658 24.4991 11.658 24.5144C11.658 25.0774 11.8773 25.6068 12.2754 26.0049C12.6736 26.403 13.2029 26.6223 13.7659 26.6223C14.3289 26.6223 14.8583 26.403 15.2563 26.0049L16.0899 25.1714C16.3343 24.927 16.5054 24.6369 16.6044 24.3284C16.9747 24.6017 17.4148 24.7384 17.855 24.7384C18.3946 24.7383 18.9346 24.5329 19.3454 24.122C19.5913 23.8761 19.7686 23.5802 19.8686 23.2573C20.2078 23.479 20.604 23.5983 21.0187 23.5983C21.5817 23.5983 22.1111 23.3791 22.5091 22.9809C22.805 22.6851 23.0018 22.3168 23.0836 21.916C23.2952 21.9861 23.5188 22.023 23.7482 22.023C24.3112 22.023 24.8406 21.8038 25.2387 21.4056C26.0605 20.5837 26.0605 19.2465 25.2387 18.4246L23.8712 17.0571L26.3674 14.5609C26.4228 14.5675 26.4786 14.5713 26.5347 14.5713C26.7722 14.5713 27.0126 14.5109 27.2326 14.3839L29.299 13.1909C29.623 13.0039 29.8548 12.7019 29.9516 12.3405C30.0485 11.9791 29.9988 11.6018 29.8117 11.2779ZM1.28675 13.4135C1.21538 13.3723 1.18937 13.3089 1.18023 13.2747C1.17109 13.2405 1.16189 13.1725 1.20314 13.1011L5.36017 5.90088C5.40136 5.82951 5.46488 5.8035 5.49904 5.79436C5.51363 5.79049 5.53437 5.78656 5.55886 5.78656C5.59185 5.78656 5.63163 5.79365 5.67253 5.81721L7.73895 7.01026C7.8481 7.0733 7.88572 7.21345 7.82267 7.32267L3.66564 14.5229C3.60253 14.632 3.4625 14.6696 3.35323 14.6066L1.28675 13.4135ZM6.54625 17.8838C6.54625 17.6337 6.64363 17.3987 6.82046 17.2219L7.32611 16.7162C7.50856 16.5337 7.74826 16.4425 7.98802 16.4425C8.22766 16.4425 8.46742 16.5338 8.64987 16.7162C8.8267 16.8931 8.92409 17.1281 8.92409 17.3781C8.92409 17.6281 8.8267 17.8632 8.64987 18.04L8.14423 18.5456C7.77926 18.9106 7.18543 18.9106 6.82046 18.5456C6.64363 18.3689 6.54625 18.1338 6.54625 17.8838ZM9.4612 21.1457C9.21113 21.1457 8.97611 21.0483 8.79934 20.8715C8.62251 20.6947 8.52513 20.4597 8.52513 20.2097C8.52513 19.9597 8.62251 19.7246 8.79934 19.5478L9.63281 18.7143C9.81527 18.5319 10.055 18.4407 10.2947 18.4407C10.5344 18.4407 10.7741 18.5319 10.9566 18.7143C11.1334 18.8911 11.2308 19.1262 11.2308 19.3762C11.2308 19.6262 11.1334 19.8613 10.9566 20.0381L10.1231 20.8715C9.94628 21.0484 9.71121 21.1457 9.4612 21.1457ZM11.6136 23.2981C11.3635 23.2981 11.1285 23.2007 10.9517 23.024C10.7749 22.8472 10.6775 22.6121 10.6775 22.3621C10.6775 22.1121 10.7749 21.877 10.9517 21.7002L11.7852 20.8667C11.9676 20.6843 12.2073 20.593 12.447 20.593C12.6867 20.593 12.9265 20.6843 13.109 20.8668C13.2858 21.0435 13.3832 21.2786 13.3832 21.5286C13.3832 21.7786 13.2858 22.0137 13.109 22.1905L12.2755 23.024C12.0987 23.2007 11.8636 23.2981 11.6136 23.2981ZM15.2613 24.3429L14.4278 25.1764C14.251 25.3532 14.016 25.4505 13.7659 25.4505C13.5159 25.4505 13.2809 25.3532 13.1041 25.1764C12.9273 24.9996 12.8299 24.7645 12.8299 24.5145C12.8299 24.2645 12.9273 24.0295 13.1041 23.8526L13.9376 23.0191C14.12 22.8366 14.3597 22.7454 14.5995 22.7454C14.8391 22.7454 15.0789 22.8367 15.2613 23.0191C15.6263 23.384 15.6263 23.9779 15.2613 24.3429ZM24.4102 20.5771C24.2334 20.7539 23.9984 20.8513 23.7483 20.8513C23.4983 20.8513 23.2633 20.7539 23.0865 20.5771L17.4939 14.9845C17.2651 14.7558 16.8942 14.7557 16.6652 14.9845C16.4364 15.2133 16.4364 15.5843 16.6652 15.8131L21.6807 20.8286C21.8575 21.0054 21.9549 21.2405 21.9549 21.4905C21.9549 21.7405 21.8575 21.9756 21.6807 22.1524C21.5039 22.3292 21.2689 22.4266 21.0188 22.4266C20.7687 22.4266 20.5337 22.3292 20.3569 22.1524L14.3301 16.1256C14.1013 15.8968 13.7303 15.8968 13.5015 16.1256C13.2727 16.3544 13.2727 16.7254 13.5015 16.9542L18.5169 21.9697C18.6938 22.1465 18.7911 22.3816 18.7911 22.6316C18.7911 22.8816 18.6938 23.1166 18.5169 23.2934C18.152 23.6584 17.5582 23.6585 17.1932 23.2934L16.0901 22.1904C16.0886 22.1888 16.0869 22.1876 16.0854 22.1861C15.6634 21.7666 15.1068 21.5634 14.5539 21.5753C14.5542 21.5597 14.555 21.5443 14.555 21.5286C14.555 20.9656 14.3358 20.4362 13.9376 20.0381C13.5151 19.6156 12.9564 19.4109 12.4015 19.4228C12.4018 19.4073 12.4026 19.3918 12.4026 19.3763C12.4026 18.8132 12.1833 18.2839 11.7852 17.8857C11.3231 17.4237 10.6981 17.2215 10.0935 17.279C10.0693 16.7532 9.85312 16.2623 9.47848 15.8877C8.65661 15.0658 7.31931 15.066 6.49744 15.8877L5.9918 16.3933C5.99121 16.3939 5.99062 16.3946 5.99004 16.3952L4.68895 15.0941L8.7677 8.0294H10.7985C10.9975 8.0294 11.1959 8.03995 11.3933 8.06046L10.7235 8.73022C10.3254 9.12835 10.1061 9.65773 10.1061 10.2207C10.1061 10.7838 10.3254 11.3131 10.7235 11.7113C11.1345 12.1222 11.6743 12.3276 12.214 12.3276C12.7538 12.3276 13.2936 12.1222 13.7045 11.7113L15.2862 10.1295L24.4102 19.2534C24.7751 19.6183 24.7751 20.2122 24.4102 20.5771ZM18.7808 11.9667C19.6335 11.3496 20.1561 10.3538 20.1561 9.2719C20.1561 8.9483 19.8937 8.68599 19.5702 8.68599C19.2466 8.68599 18.9843 8.9483 18.9843 9.2719C18.9843 10.0373 18.58 10.7354 17.9349 11.1209L15.7033 8.88924C15.4744 8.66044 15.1041 8.65446 14.8752 8.88326L12.8759 10.8826C12.5109 11.2476 11.9171 11.2475 11.5521 10.8826C11.3753 10.7058 11.2779 10.4708 11.2779 10.2207C11.2779 9.97073 11.3753 9.73566 11.5521 9.55883L13.835 7.27591C14.1952 6.91569 14.6742 6.7173 15.1838 6.7173H21.1891L25.3196 13.8715C25.3293 13.8884 25.34 13.9045 25.3504 13.9209L23.0427 16.2286L18.7808 11.9667Z" fill="#5E63FF"/>
<path d="M29.8117 11.2779L29.0303 9.92433C28.8685 9.64414 28.5104 9.54811 28.2299 9.70988C27.9497 9.87165 27.8537 10.23 28.0155 10.5102L28.7969 11.8638C28.8382 11.9351 28.829 12.0031 28.8198 12.0373C28.8107 12.0714 28.7846 12.1349 28.7133 12.1761L26.6468 13.3692C26.5375 13.4321 26.3975 13.3945 26.3344 13.2855L22.1773 6.08532C22.1143 5.97611 22.1519 5.83596 22.2611 5.77285L24.3274 4.57986C24.4366 4.51694 24.5769 4.55432 24.6399 4.66353L25.3789 5.94347C25.5407 6.22378 25.899 6.31981 26.1792 6.15792C26.4595 5.99615 26.5555 5.6378 26.3937 5.35755L25.6547 4.07761C25.2687 3.4089 24.4105 3.17881 23.7416 3.56499L21.6751 4.75804C21.3612 4.93933 21.144 5.22461 21.0418 5.54546H15.1838C14.3613 5.54546 13.5881 5.86572 13.0064 6.44731L12.4062 7.04752C11.8799 6.92208 11.3408 6.85757 10.7986 6.85757H8.97963C8.88875 6.50654 8.663 6.19061 8.32492 5.99539L6.25851 4.80234C5.93449 4.61525 5.55693 4.56563 5.19571 4.66242C4.83437 4.75921 4.53233 4.991 4.3453 5.31496L0.188267 12.5151C0.00124138 12.8391 -0.0485032 13.2165 0.0482907 13.5779C0.145084 13.9393 0.376874 14.2413 0.700887 14.4283L2.76731 15.6214C2.98732 15.7484 3.22772 15.8088 3.46519 15.8088C3.55173 15.8088 3.63781 15.8004 3.72241 15.7847L5.41373 17.4761C5.38783 17.609 5.37441 17.7454 5.37441 17.8839C5.37441 18.4469 5.59366 18.9762 5.9918 19.3743C6.37299 19.7555 6.86505 19.9595 7.36513 19.9871C7.35746 20.0606 7.35329 20.1348 7.35329 20.2097C7.35329 20.7727 7.57255 21.3021 7.97068 21.7001C8.36881 22.0983 8.89813 22.3175 9.46114 22.3175C9.47643 22.3175 9.49155 22.3168 9.50678 22.3164C9.50643 22.3316 9.50567 22.3467 9.50567 22.362C9.50567 22.9251 9.72492 23.4544 10.1231 23.8525C10.5212 24.2506 11.0505 24.4699 11.6135 24.4699C11.6288 24.4699 11.6439 24.4691 11.6592 24.4688C11.6588 24.484 11.658 24.4991 11.658 24.5144C11.658 25.0774 11.8773 25.6068 12.2754 26.0049C12.6736 26.403 13.2029 26.6223 13.7659 26.6223C14.3289 26.6223 14.8583 26.403 15.2563 26.0049L16.0899 25.1714C16.3343 24.927 16.5054 24.6369 16.6044 24.3284C16.9747 24.6017 17.4148 24.7384 17.855 24.7384C18.3946 24.7383 18.9346 24.5329 19.3454 24.122C19.5913 23.8761 19.7686 23.5802 19.8686 23.2573C20.2078 23.479 20.604 23.5983 21.0187 23.5983C21.5817 23.5983 22.1111 23.3791 22.5091 22.9809C22.805 22.6851 23.0018 22.3168 23.0836 21.916C23.2952 21.9861 23.5188 22.023 23.7482 22.023C24.3112 22.023 24.8406 21.8038 25.2387 21.4056C26.0605 20.5837 26.0605 19.2465 25.2387 18.4246L23.8712 17.0571L26.3674 14.5609C26.4228 14.5675 26.4786 14.5713 26.5347 14.5713C26.7722 14.5713 27.0126 14.5109 27.2326 14.3839L29.299 13.1909C29.623 13.0039 29.8548 12.7019 29.9516 12.3405C30.0485 11.9791 29.9988 11.6018 29.8117 11.2779ZM1.28675 13.4135C1.21538 13.3723 1.18937 13.3089 1.18023 13.2747C1.17109 13.2405 1.16189 13.1725 1.20314 13.1011L5.36017 5.90088C5.40136 5.82951 5.46488 5.8035 5.49904 5.79436C5.51363 5.79049 5.53437 5.78656 5.55886 5.78656C5.59185 5.78656 5.63163 5.79365 5.67253 5.81721L7.73895 7.01026C7.8481 7.0733 7.88572 7.21345 7.82267 7.32267L3.66564 14.5229C3.60253 14.632 3.4625 14.6696 3.35323 14.6066L1.28675 13.4135ZM6.54625 17.8838C6.54625 17.6337 6.64363 17.3987 6.82046 17.2219L7.32611 16.7162C7.50856 16.5337 7.74826 16.4425 7.98802 16.4425C8.22766 16.4425 8.46742 16.5338 8.64987 16.7162C8.8267 16.8931 8.92409 17.1281 8.92409 17.3781C8.92409 17.6281 8.8267 17.8632 8.64987 18.04L8.14423 18.5456C7.77926 18.9106 7.18543 18.9106 6.82046 18.5456C6.64363 18.3689 6.54625 18.1338 6.54625 17.8838ZM9.4612 21.1457C9.21113 21.1457 8.97611 21.0483 8.79934 20.8715C8.62251 20.6947 8.52513 20.4597 8.52513 20.2097C8.52513 19.9597 8.62251 19.7246 8.79934 19.5478L9.63281 18.7143C9.81527 18.5319 10.055 18.4407 10.2947 18.4407C10.5344 18.4407 10.7741 18.5319 10.9566 18.7143C11.1334 18.8911 11.2308 19.1262 11.2308 19.3762C11.2308 19.6262 11.1334 19.8613 10.9566 20.0381L10.1231 20.8715C9.94628 21.0484 9.71121 21.1457 9.4612 21.1457ZM11.6136 23.2981C11.3635 23.2981 11.1285 23.2007 10.9517 23.024C10.7749 22.8472 10.6775 22.6121 10.6775 22.3621C10.6775 22.1121 10.7749 21.877 10.9517 21.7002L11.7852 20.8667C11.9676 20.6843 12.2073 20.593 12.447 20.593C12.6867 20.593 12.9265 20.6843 13.109 20.8668C13.2858 21.0435 13.3832 21.2786 13.3832 21.5286C13.3832 21.7786 13.2858 22.0137 13.109 22.1905L12.2755 23.024C12.0987 23.2007 11.8636 23.2981 11.6136 23.2981ZM15.2613 24.3429L14.4278 25.1764C14.251 25.3532 14.016 25.4505 13.7659 25.4505C13.5159 25.4505 13.2809 25.3532 13.1041 25.1764C12.9273 24.9996 12.8299 24.7645 12.8299 24.5145C12.8299 24.2645 12.9273 24.0295 13.1041 23.8526L13.9376 23.0191C14.12 22.8366 14.3597 22.7454 14.5995 22.7454C14.8391 22.7454 15.0789 22.8367 15.2613 23.0191C15.6263 23.384 15.6263 23.9779 15.2613 24.3429ZM24.4102 20.5771C24.2334 20.7539 23.9984 20.8513 23.7483 20.8513C23.4983 20.8513 23.2633 20.7539 23.0865 20.5771L17.4939 14.9845C17.2651 14.7558 16.8942 14.7557 16.6652 14.9845C16.4364 15.2133 16.4364 15.5843 16.6652 15.8131L21.6807 20.8286C21.8575 21.0054 21.9549 21.2405 21.9549 21.4905C21.9549 21.7405 21.8575 21.9756 21.6807 22.1524C21.5039 22.3292 21.2689 22.4266 21.0188 22.4266C20.7687 22.4266 20.5337 22.3292 20.3569 22.1524L14.3301 16.1256C14.1013 15.8968 13.7303 15.8968 13.5015 16.1256C13.2727 16.3544 13.2727 16.7254 13.5015 16.9542L18.5169 21.9697C18.6938 22.1465 18.7911 22.3816 18.7911 22.6316C18.7911 22.8816 18.6938 23.1166 18.5169 23.2934C18.152 23.6584 17.5582 23.6585 17.1932 23.2934L16.0901 22.1904C16.0886 22.1888 16.0869 22.1876 16.0854 22.1861C15.6634 21.7666 15.1068 21.5634 14.5539 21.5753C14.5542 21.5597 14.555 21.5443 14.555 21.5286C14.555 20.9656 14.3358 20.4362 13.9376 20.0381C13.5151 19.6156 12.9564 19.4109 12.4015 19.4228C12.4018 19.4073 12.4026 19.3918 12.4026 19.3763C12.4026 18.8132 12.1833 18.2839 11.7852 17.8857C11.3231 17.4237 10.6981 17.2215 10.0935 17.279C10.0693 16.7532 9.85312 16.2623 9.47848 15.8877C8.65661 15.0658 7.31931 15.066 6.49744 15.8877L5.9918 16.3933C5.99121 16.3939 5.99062 16.3946 5.99004 16.3952L4.68895 15.0941L8.7677 8.0294H10.7985C10.9975 8.0294 11.1959 8.03995 11.3933 8.06046L10.7235 8.73022C10.3254 9.12835 10.1061 9.65773 10.1061 10.2207C10.1061 10.7838 10.3254 11.3131 10.7235 11.7113C11.1345 12.1222 11.6743 12.3276 12.214 12.3276C12.7538 12.3276 13.2936 12.1222 13.7045 11.7113L15.2862 10.1295L24.4102 19.2534C24.7751 19.6183 24.7751 20.2122 24.4102 20.5771ZM18.7808 11.9667C19.6335 11.3496 20.1561 10.3538 20.1561 9.2719C20.1561 8.9483 19.8937 8.68599 19.5702 8.68599C19.2466 8.68599 18.9843 8.9483 18.9843 9.2719C18.9843 10.0373 18.58 10.7354 17.9349 11.1209L15.7033 8.88924C15.4744 8.66044 15.1041 8.65446 14.8752 8.88326L12.8759 10.8826C12.5109 11.2476 11.9171 11.2475 11.5521 10.8826C11.3753 10.7058 11.2779 10.4708 11.2779 10.2207C11.2779 9.97073 11.3753 9.73566 11.5521 9.55883L13.835 7.27591C14.1952 6.91569 14.6742 6.7173 15.1838 6.7173H21.1891L25.3196 13.8715C25.3293 13.8884 25.34 13.9045 25.3504 13.9209L23.0427 16.2286L18.7808 11.9667Z" stroke="#5E63FF" stroke-width="0.4" mask="url(#path-1-outside-1)"/>
<path d="M26.7197 8.41909C26.8474 8.54686 27.0234 8.62008 27.2047 8.62008C27.3855 8.62008 27.5614 8.54672 27.6895 8.4193L27.6899 8.4189C27.8172 8.29082 27.8906 8.11498 27.8906 7.93414C27.8906 7.7528 27.8173 7.57692 27.6899 7.44878L27.6899 7.44878L27.6895 7.4484C27.5612 7.3208 27.3853 7.24821 27.2047 7.24821C27.0237 7.24821 26.8476 7.32073 26.7197 7.44859C26.5914 7.57698 26.5188 7.75303 26.5188 7.93414C26.5188 8.11472 26.5914 8.29074 26.7197 8.41909ZM26.7197 8.41909L26.7903 8.34852L26.7197 8.41911C26.7197 8.4191 26.7197 8.4191 26.7197 8.41909Z" fill="#5E63FF" stroke="#5E63FF" stroke-width="0.2"/>
</g>
<defs>
<clipPath id="clip0">
<rect width="30" height="30" fill="white"/>
</clipPath>
</defs>
</svg>
