<?xml version="1.0" encoding="utf-8"?><svg viewBox="0 0 502.66 502.66" xmlns="http://www.w3.org/2000/svg" xmlns:xlink="http://www.w3.org/1999/xlink"><style>:root>svg{display:none}:root>svg:target{display:block}</style><svg fill="none" viewBox="0 0 30 30" id="chronometer" xmlns="http://www.w3.org/2000/svg"><path d="M24.53 6.95a13.365 13.365 0 00-8.651-3.926V1.758h1.289a.879.879 0 000-1.758h-4.336a.879.879 0 000 1.758h1.289v1.266a13.337 13.337 0 00-6.252 2.01l-.835-.836a2.136 2.136 0 00-1.522-.631c-.575 0-1.116.224-1.522.631L2.72 5.471a2.154 2.154 0 000 3.038l.84.842a13.433 13.433 0 00-2.037 7.146c0 3.607 1.402 6.997 3.947 9.547A13.375 13.375 0 0015 30c3.6 0 6.985-1.405 9.53-3.956a13.427 13.427 0 003.946-9.547c0-3.606-1.401-6.997-3.946-9.547zM3.964 6.712l1.27-1.272a.39.39 0 01.556 0l.637.638a13.73 13.73 0 00-1.825 1.828l-.638-.64a.393.393 0 010-.554zM15 28.242c-6.462 0-11.719-5.269-11.719-11.745C3.281 10.021 8.538 4.752 15 4.752s11.719 5.27 11.719 11.745c0 6.477-5.257 11.745-11.72 11.745z" fill="#5E63FF"/><path d="M15 6.4c-5.557 0-10.078 4.53-10.078 10.097 0 5.568 4.52 10.098 10.078 10.098 5.557 0 10.078-4.53 10.078-10.098C25.078 10.93 20.558 6.4 15 6.4zm.879 18.39v-1.027a.879.879 0 00-1.758 0v1.027c-3.888-.41-6.986-3.517-7.395-7.414h1.008a.879.879 0 000-1.758H6.726c.409-3.897 3.507-7.003 7.395-7.414v1.028a.879.879 0 001.758 0V8.204c3.888.411 6.986 3.517 7.395 7.414h-1.008a.879.879 0 000 1.758h1.008c-.409 3.897-3.507 7.003-7.395 7.414z" fill="#5E63FF"/><path d="M17.168 15.99h-1.24v-3.555a.879.879 0 00-1.758 0v4.434c0 .485.394.879.88.879h2.118a.879.879 0 000-1.758z" fill="#5E63FF"/></svg><svg fill="none" viewBox="0 0 30 30" id="deal" xmlns="http://www.w3.org/2000/svg"><g clip-path="url(#bclip0)"><mask id="ba" maskUnits="userSpaceOnUse" x="-1" y="2.378" width="32" height="25" fill="#000"><path fill="#fff" d="M-1 2.378h32v25H-1z"/><path d="M29.812 11.278l-.782-1.354a.586.586 0 00-1.015.586l.782 1.354a.227.227 0 01-.084.312l-2.066 1.193a.23.23 0 01-.313-.083l-4.157-7.2a.23.23 0 01.084-.313l2.066-1.193a.23.23 0 01.313.084l.739 1.28a.586.586 0 101.015-.586l-.74-1.28a1.402 1.402 0 00-1.912-.513l-2.067 1.193a1.395 1.395 0 00-.633.787h-5.858a3.06 3.06 0 00-2.178.902l-.6.6a6.932 6.932 0 00-1.607-.19h-1.82a1.396 1.396 0 00-.654-.862L6.259 4.802a1.392 1.392 0 00-1.063-.14 1.391 1.391 0 00-.85.653l-4.158 7.2a1.392 1.392 0 00-.14 1.063c.097.361.329.663.653.85l2.066 1.193a1.392 1.392 0 00.955.164l1.692 1.691a2.094 2.094 0 00.578 1.898c.381.382.873.585 1.373.613a2.094 2.094 0 00.606 1.713c.398.398.927.617 1.49.617h.046l-.001.045c0 .563.219 1.092.617 1.49.398.399.928.618 1.49.618l.046-.001-.001.045c0 .563.22 1.093.617 1.49.399.399.928.618 1.49.618.564 0 1.093-.219 1.491-.617l.834-.834c.244-.244.415-.534.514-.843.37.274.81.41 1.251.41a2.102 2.102 0 002.014-1.48c.339.221.735.34 1.15.34.563 0 1.092-.219 1.49-.617.296-.296.493-.664.575-1.065a2.11 2.11 0 002.155-.51 2.11 2.11 0 000-2.981l-1.368-1.368 2.496-2.496a1.392 1.392 0 00.865-.177L29.3 13.19c.324-.187.556-.49.653-.85a1.39 1.39 0 00-.14-1.063zM1.287 13.414a.227.227 0 01-.084-.313l4.157-7.2a.228.228 0 01.313-.084L7.739 7.01c.11.063.147.203.084.313l-4.157 7.2a.23.23 0 01-.313.084l-2.066-1.193zm5.26 4.47a.93.93 0 01.273-.662l.506-.506a.933.933 0 011.324 0 .93.93 0 01.274.662.93.93 0 01-.274.662l-.506.506a.937.937 0 01-1.598-.662zm2.914 3.262a.93.93 0 01-.662-.274.93.93 0 01-.274-.662.93.93 0 01.274-.662l.834-.834a.933.933 0 011.324 0 .93.93 0 01.274.662.93.93 0 01-.274.662l-.834.834a.93.93 0 01-.662.274zm2.153 2.152a.93.93 0 01-.662-.274.93.93 0 01-.274-.662.93.93 0 01.274-.662l.833-.833a.933.933 0 011.324 0 .93.93 0 01.274.662.93.93 0 01-.274.662l-.834.833a.93.93 0 01-.661.274zm3.647 1.045l-.833.833a.93.93 0 01-.662.275.93.93 0 01-.662-.275.93.93 0 01-.274-.661.93.93 0 01.274-.662l.834-.834a.933.933 0 011.324 0 .937.937 0 010 1.324zm9.15-3.766a.93.93 0 01-.663.274.93.93 0 01-.662-.274l-5.592-5.593a.586.586 0 00-.829.83l5.016 5.015a.93.93 0 01.274.662.93.93 0 01-.274.661.93.93 0 01-.662.275.93.93 0 01-.662-.275l-6.027-6.026a.586.586 0 00-.829.828l5.016 5.016a.93.93 0 01.274.662.937.937 0 01-1.598.662L16.09 22.19l-.005-.004a2.101 2.101 0 00-1.531-.61l.001-.047a2.101 2.101 0 00-2.153-2.106v-.047a2.105 2.105 0 00-2.31-2.097 2.11 2.11 0 00-3.596-1.391l-.504.505-.002.002-1.301-1.3 4.079-7.066h2.03c.2 0 .398.01.595.031l-.67.67a2.094 2.094 0 00-.617 1.49 2.102 2.102 0 002.108 2.107c.54 0 1.08-.205 1.49-.616l1.582-1.582 9.124 9.124a.937.937 0 010 1.324zm-5.63-8.61a3.325 3.325 0 001.375-2.695.586.586 0 00-1.172 0c0 .765-.404 1.463-1.05 1.849l-2.23-2.232a.585.585 0 00-.829-.006l-2 2a.937.937 0 01-1.323-1.324l2.283-2.283c.36-.36.84-.559 1.349-.559h6.005l4.13 7.154.031.05-2.307 2.308-4.262-4.262z"/></mask><path d="M29.812 11.278l-.782-1.354a.586.586 0 00-1.015.586l.782 1.354a.227.227 0 01-.084.312l-2.066 1.193a.23.23 0 01-.313-.083l-4.157-7.2a.23.23 0 01.084-.313l2.066-1.193a.23.23 0 01.313.084l.739 1.28a.586.586 0 101.015-.586l-.74-1.28a1.402 1.402 0 00-1.912-.513l-2.067 1.193a1.395 1.395 0 00-.633.787h-5.858a3.06 3.06 0 00-2.178.902l-.6.6a6.932 6.932 0 00-1.607-.19h-1.82a1.396 1.396 0 00-.654-.862L6.259 4.802a1.392 1.392 0 00-1.063-.14 1.391 1.391 0 00-.85.653l-4.158 7.2a1.392 1.392 0 00-.14 1.063c.097.361.329.663.653.85l2.066 1.193a1.392 1.392 0 00.955.164l1.692 1.691a2.094 2.094 0 00.578 1.898c.381.382.873.585 1.373.613a2.094 2.094 0 00.606 1.713c.398.398.927.617 1.49.617h.046l-.001.045c0 .563.219 1.092.617 1.49.398.399.928.618 1.49.618l.046-.001-.001.045c0 .563.22 1.093.617 1.49.399.399.928.618 1.49.618.564 0 1.093-.219 1.491-.617l.834-.834c.244-.244.415-.534.514-.843.37.274.81.41 1.251.41a2.102 2.102 0 002.014-1.48c.339.221.735.34 1.15.34.563 0 1.092-.219 1.49-.617.296-.296.493-.664.575-1.065a2.11 2.11 0 002.155-.51 2.11 2.11 0 000-2.981l-1.368-1.368 2.496-2.496a1.392 1.392 0 00.865-.177L29.3 13.19c.324-.187.556-.49.653-.85a1.39 1.39 0 00-.14-1.063zM1.287 13.414a.227.227 0 01-.084-.313l4.157-7.2a.228.228 0 01.313-.084L7.739 7.01c.11.063.147.203.084.313l-4.157 7.2a.23.23 0 01-.313.084l-2.066-1.193zm5.26 4.47a.93.93 0 01.273-.662l.506-.506a.933.933 0 011.324 0 .93.93 0 01.274.662.93.93 0 01-.274.662l-.506.506a.937.937 0 01-1.598-.662zm2.914 3.262a.93.93 0 01-.662-.274.93.93 0 01-.274-.662.93.93 0 01.274-.662l.834-.834a.933.933 0 011.324 0 .93.93 0 01.274.662.93.93 0 01-.274.662l-.834.834a.93.93 0 01-.662.274zm2.153 2.152a.93.93 0 01-.662-.274.93.93 0 01-.274-.662.93.93 0 01.274-.662l.833-.833a.933.933 0 011.324 0 .93.93 0 01.274.662.93.93 0 01-.274.662l-.834.833a.93.93 0 01-.661.274zm3.647 1.045l-.833.833a.93.93 0 01-.662.275.93.93 0 01-.662-.275.93.93 0 01-.274-.661.93.93 0 01.274-.662l.834-.834a.933.933 0 011.324 0 .937.937 0 010 1.324zm9.15-3.766a.93.93 0 01-.663.274.93.93 0 01-.662-.274l-5.592-5.593a.586.586 0 00-.829.83l5.016 5.015a.93.93 0 01.274.662.93.93 0 01-.274.661.93.93 0 01-.662.275.93.93 0 01-.662-.275l-6.027-6.026a.586.586 0 00-.829.828l5.016 5.016a.93.93 0 01.274.662.937.937 0 01-1.598.662L16.09 22.19l-.005-.004a2.101 2.101 0 00-1.531-.61l.001-.047a2.101 2.101 0 00-2.153-2.106v-.047a2.105 2.105 0 00-2.31-2.097 2.11 2.11 0 00-3.596-1.391l-.504.505-.002.002-1.301-1.3 4.079-7.066h2.03c.2 0 .398.01.595.031l-.67.67a2.094 2.094 0 00-.617 1.49 2.102 2.102 0 002.108 2.107c.54 0 1.08-.205 1.49-.616l1.582-1.582 9.124 9.124a.937.937 0 010 1.324zm-5.63-8.61a3.325 3.325 0 001.375-2.695.586.586 0 00-1.172 0c0 .765-.404 1.463-1.05 1.849l-2.23-2.232a.585.585 0 00-.829-.006l-2 2a.937.937 0 01-1.323-1.324l2.283-2.283c.36-.36.84-.559 1.349-.559h6.005l4.13 7.154.031.05-2.307 2.308-4.262-4.262z" fill="#5E63FF"/><path d="M29.812 11.278l-.782-1.354a.586.586 0 00-1.015.586l.782 1.354a.227.227 0 01-.084.312l-2.066 1.193a.23.23 0 01-.313-.083l-4.157-7.2a.23.23 0 01.084-.313l2.066-1.193a.23.23 0 01.313.084l.739 1.28a.586.586 0 101.015-.586l-.74-1.28a1.402 1.402 0 00-1.912-.513l-2.067 1.193a1.395 1.395 0 00-.633.787h-5.858a3.06 3.06 0 00-2.178.902l-.6.6a6.932 6.932 0 00-1.607-.19h-1.82a1.396 1.396 0 00-.654-.862L6.259 4.802a1.392 1.392 0 00-1.063-.14 1.391 1.391 0 00-.85.653l-4.158 7.2a1.392 1.392 0 00-.14 1.063c.097.361.329.663.653.85l2.066 1.193a1.392 1.392 0 00.955.164l1.692 1.691a2.094 2.094 0 00.578 1.898c.381.382.873.585 1.373.613a2.094 2.094 0 00.606 1.713c.398.398.927.617 1.49.617h.046l-.001.045c0 .563.219 1.092.617 1.49.398.399.928.618 1.49.618l.046-.001-.001.045c0 .563.22 1.093.617 1.49.399.399.928.618 1.49.618.564 0 1.093-.219 1.491-.617l.834-.834c.244-.244.415-.534.514-.843.37.274.81.41 1.251.41a2.102 2.102 0 002.014-1.48c.339.221.735.34 1.15.34.563 0 1.092-.219 1.49-.617.296-.296.493-.664.575-1.065a2.11 2.11 0 002.155-.51 2.11 2.11 0 000-2.981l-1.368-1.368 2.496-2.496a1.392 1.392 0 00.865-.177L29.3 13.19c.324-.187.556-.49.653-.85a1.39 1.39 0 00-.14-1.063zM1.287 13.414a.227.227 0 01-.084-.313l4.157-7.2a.228.228 0 01.313-.084L7.739 7.01c.11.063.147.203.084.313l-4.157 7.2a.23.23 0 01-.313.084l-2.066-1.193zm5.26 4.47a.93.93 0 01.273-.662l.506-.506a.933.933 0 011.324 0 .93.93 0 01.274.662.93.93 0 01-.274.662l-.506.506a.937.937 0 01-1.598-.662zm2.914 3.262a.93.93 0 01-.662-.274.93.93 0 01-.274-.662.93.93 0 01.274-.662l.834-.834a.933.933 0 011.324 0 .93.93 0 01.274.662.93.93 0 01-.274.662l-.834.834a.93.93 0 01-.662.274zm2.153 2.152a.93.93 0 01-.662-.274.93.93 0 01-.274-.662.93.93 0 01.274-.662l.833-.833a.933.933 0 011.324 0 .93.93 0 01.274.662.93.93 0 01-.274.662l-.834.833a.93.93 0 01-.661.274zm3.647 1.045l-.833.833a.93.93 0 01-.662.275.93.93 0 01-.662-.275.93.93 0 01-.274-.661.93.93 0 01.274-.662l.834-.834a.933.933 0 011.324 0 .937.937 0 010 1.324zm9.15-3.766a.93.93 0 01-.663.274.93.93 0 01-.662-.274l-5.592-5.593a.586.586 0 00-.829.83l5.016 5.015a.93.93 0 01.274.662.93.93 0 01-.274.661.93.93 0 01-.662.275.93.93 0 01-.662-.275l-6.027-6.026a.586.586 0 00-.829.828l5.016 5.016a.93.93 0 01.274.662.937.937 0 01-1.598.662L16.09 22.19l-.005-.004a2.101 2.101 0 00-1.531-.61l.001-.047a2.101 2.101 0 00-2.153-2.106v-.047a2.105 2.105 0 00-2.31-2.097 2.11 2.11 0 00-3.596-1.391l-.504.505-.002.002-1.301-1.3 4.079-7.066h2.03c.2 0 .398.01.595.031l-.67.67a2.094 2.094 0 00-.617 1.49 2.102 2.102 0 002.108 2.107c.54 0 1.08-.205 1.49-.616l1.582-1.582 9.124 9.124a.937.937 0 010 1.324zm-5.63-8.61a3.325 3.325 0 001.375-2.695.586.586 0 00-1.172 0c0 .765-.404 1.463-1.05 1.849l-2.23-2.232a.585.585 0 00-.829-.006l-2 2a.937.937 0 01-1.323-1.324l2.283-2.283c.36-.36.84-.559 1.349-.559h6.005l4.13 7.154.031.05-2.307 2.308-4.262-4.262z" stroke="#5E63FF" stroke-width=".4" mask="url(#ba)"/><path d="M26.72 8.42a.69.69 0 00.97 0v-.001a.692.692 0 00.2-.485.692.692 0 00-.2-.485h0a.69.69 0 00-.97 0 .69.69 0 000 .97zm0 0l.07-.071-.07.07s0 0 0 0z" fill="#5E63FF" stroke="#5E63FF" stroke-width=".2"/></g><defs><clipPath id="bclip0"><path fill="#fff" d="M0 0h30v30H0z"/></clipPath></defs></svg><svg viewBox="0 0 502.664 502.664" id="icon" xmlns="http://www.w3.org/2000/svg"><g fill="#010002"><path d="M153.821 358.226L0 274.337v-46.463l153.821-83.414v54.574L46.636 250.523l107.185 53.431v54.272zM180.094 387.584L282.103 115.08h32.227L212.084 387.584h-31.99zM348.843 358.226v-54.272l107.164-52.999-107.164-52.59v-53.927l153.821 83.522v46.183l-153.821 84.083z"/></g></svg><svg fill="none" viewBox="0 0 30 30" id="ticket" xmlns="http://www.w3.org/2000/svg"><g clip-path="url(#dclip0)" fill="#5E63FF" stroke="#5E63FF" stroke-width=".2"><path d="M22.319 4.596a.867.867 0 00.002-1.226L19.431.473A.867.867 0 0018.206.47L.461 18.16a.867.867 0 00-.002 1.226l2.888 2.897c.338.34.887.34 1.226.002a2.204 2.204 0 013.113.005c.857.86.855 2.256-.005 3.113a.867.867 0 00-.002 1.226l2.889 2.897c.338.34.887.34 1.226.002l17.745-17.69a.867.867 0 00.002-1.226l-2.888-2.897a.867.867 0 00-1.226-.002 2.204 2.204 0 01-3.113-.005 2.204 2.204 0 01.005-3.113zm-1.233 4.337a3.942 3.942 0 004.883.553l1.732 1.737-11.266 11.231-1.554-1.559a.867.867 0 00-1.228 1.225l1.554 1.558-4.024 4.011-1.731-1.737a3.942 3.942 0 00-.538-4.885 3.942 3.942 0 00-4.883-.553l-1.732-1.737 4.023-4.01 1.554 1.558a.867.867 0 101.228-1.224L7.55 13.542 18.816 2.311l1.732 1.737a3.942 3.942 0 00.538 4.885z"/><path d="M10.044 17.272a.867.867 0 00-.002 1.226l1.444 1.449a.867.867 0 001.229-1.225l-1.445-1.448s0 0 0 0a.867.867 0 00-1.226-.002z"/></g><defs><clipPath id="dclip0"><path fill="#fff" d="M0 0h30v30H0z"/></clipPath></defs></svg></svg>