<svg width="30" height="30" viewBox="0 0 30 30" fill="none" xmlns="http://www.w3.org/2000/svg">
<g clip-path="url(#clip0)">
<path d="M22.3186 4.59598C22.6577 4.25789 22.6585 3.7089 22.3205 3.36981L19.4323 0.472622C19.0942 0.133485 18.5452 0.132677 18.2061 0.47072L0.460774 18.1611C0.12168 18.4991 0.120785 19.0481 0.45887 19.3872L3.34708 22.2844C3.68516 22.6235 4.23415 22.6244 4.57324 22.2863C5.43272 21.4295 6.82929 21.4316 7.68614 22.2911C8.54299 23.1507 8.54082 24.5472 7.6813 25.404C7.34221 25.7421 7.34131 26.2911 7.6794 26.6302L10.5676 29.5274C10.9057 29.8665 11.4547 29.8673 11.7938 29.5293L29.5391 11.839C29.8782 11.5009 29.879 10.9519 29.541 10.6128L26.6528 7.71561C26.3147 7.37647 25.7657 7.37566 25.4266 7.71371C24.5672 8.57052 23.1706 8.56839 22.3137 7.70887C21.4569 6.84936 21.4591 5.45283 22.3186 4.59598ZM21.0856 8.93318C22.4075 10.2591 24.4471 10.4437 25.9689 9.48573L27.7008 11.223L16.4347 22.4542L14.8807 20.8953C14.5426 20.5562 13.9936 20.5554 13.6545 20.8934C13.3154 21.2315 13.3146 21.7805 13.6526 22.1196L15.2067 23.6784L11.1835 27.6891L9.45163 25.9518C10.4143 24.433 10.236 22.3928 8.91421 21.0669C7.59239 19.7409 5.55277 19.5563 4.03098 20.5143L2.29907 18.777L6.32216 14.7664L7.87619 16.3252C8.21427 16.6644 8.76326 16.6652 9.10236 16.3271C9.44145 15.9891 9.44231 15.4401 9.10426 15.101L7.55023 13.5421L18.8163 2.31096L20.5482 4.04826C19.5856 5.5671 19.7638 7.60724 21.0856 8.93318Z" fill="#5E63FF" stroke="#5E63FF" stroke-width="0.2"/>
<path d="M10.0443 17.2719C9.70513 17.61 9.70432 18.159 10.0424 18.4981L11.4865 19.9467C11.8246 20.2858 12.3736 20.2867 12.7127 19.9486C13.0518 19.6106 13.0526 19.0615 12.7146 18.7224L11.2704 17.2738C11.2704 17.2738 11.2704 17.2738 11.2704 17.2738C10.9324 16.9347 10.3834 16.9338 10.0443 17.2719Z" fill="#5E63FF" stroke="#5E63FF" stroke-width="0.2"/>
</g>
<defs>
<clipPath id="clip0">
<rect width="30" height="30" fill="white"/>
</clipPath>
</defs>
</svg>
